<?xml version="1.0" encoding="utf-8"?>
<!-- Generator: Adobe Illustrator 23.0.3, SVG Export Plug-In . SVG Version: 6.00 Build 0)  -->
<svg version="1.1" id="logo" xmlns="http://www.w3.org/2000/svg" xmlns:xlink="http://www.w3.org/1999/xlink" x="0px" y="0px"
	 viewBox="0 0 148 37" style="enable-background:new 0 0 148 37;" xml:space="preserve">
<style type="text/css">
	.st0{fill:url(#SVGID_1_);}
	.st1{fill:url(#SVGID_2_);}
	.st2{fill:url(#SVGID_3_);}
	.st3{fill:url(#SVGID_4_);}
	.st4{fill:url(#SVGID_5_);}
	.st5{fill:url(#SVGID_6_);}
	.st6{fill:url(#SVGID_7_);}
	.st7{fill:url(#SVGID_8_);}
</style>
<g>
	<g>
		<linearGradient id="SVGID_1_" gradientUnits="userSpaceOnUse" x1="74" y1="-0.8583" x2="74" y2="38.8444">
			<stop  offset="0" style="stop-color:#0073BD"/>
			<stop  offset="0.3741" style="stop-color:#298EB4"/>
			<stop  offset="1" style="stop-color:#6BBAA7"/>
		</linearGradient>
		<path class="st0" d="M0.5,19.1C0.54,13.61,4.82,9,10.36,9c5.25,0,9.42,3.92,9.74,9.38c0,0.04,0,0.12,0,0.2
			c0,0.08,0,0.28-0.04,0.36c-0.12,0.97-0.97,1.62-2.1,1.62H5.11c0.2,0.93,0.65,1.98,1.37,2.67c0.85,0.97,2.47,1.7,3.88,1.82
			c1.46,0.12,3.19-0.24,4.2-1.01c0.85-0.89,2.51-0.77,3.03-0.12c0.53,0.57,0.93,1.78,0,2.63c-1.98,1.82-4.37,2.67-7.23,2.67
			C4.82,29.17,0.54,24.6,0.5,19.1z M4.91,17.12h11.44c-0.4-1.62-2.47-4-5.98-4.28C6.93,13,5.23,15.47,4.91,17.12z"/>
		<linearGradient id="SVGID_2_" gradientUnits="userSpaceOnUse" x1="74" y1="-0.8583" x2="74" y2="38.8444">
			<stop  offset="0" style="stop-color:#0073BD"/>
			<stop  offset="0.3741" style="stop-color:#298EB4"/>
			<stop  offset="1" style="stop-color:#6BBAA7"/>
		</linearGradient>
		<path class="st1" d="M37.44,12.23l-6.63,15.68c-0.04,0.12-0.12,0.24-0.16,0.28c0,0.04-0.04,0.04-0.04,0.04
			c-0.08,0.08-0.16,0.2-0.24,0.28c0,0.04-0.04,0.04-0.04,0.04c-0.08,0.12-0.16,0.16-0.24,0.24c0,0-0.04,0-0.04,0.04
			c-0.08,0.08-0.16,0.16-0.28,0.2c0,0,0,0-0.08,0c0,0,0,0,0,0.04c-0.12,0-0.24,0.04-0.32,0.08c-0.04,0-0.04,0-0.08,0
			c-0.16,0.04-0.28,0.04-0.4,0.04c-0.08,0-0.2,0-0.36-0.04c-0.04,0-0.04,0-0.08,0c-0.12-0.04-0.2-0.08-0.32-0.08
			c0-0.04,0-0.04,0-0.04c-0.08,0-0.08,0-0.08,0c-0.12-0.04-0.2-0.12-0.36-0.2c0-0.04-0.04-0.04-0.04-0.04
			c-0.08-0.08-0.16-0.12-0.24-0.24c-0.04,0-0.04,0-0.08-0.04c-0.04-0.08-0.12-0.2-0.2-0.28c-0.04,0-0.04,0-0.04-0.04
			c-0.08-0.04-0.12-0.16-0.16-0.28l-6.55-15.68c-0.49-1.09,0.04-2.26,1.17-2.75c0.97-0.49,2.22,0.08,2.71,1.17l4.65,10.99
			l4.69-10.99c0.44-1.09,1.66-1.66,2.71-1.17C37.4,9.97,37.93,11.14,37.44,12.23z"/>
		<linearGradient id="SVGID_3_" gradientUnits="userSpaceOnUse" x1="74" y1="-0.8583" x2="74" y2="38.8444">
			<stop  offset="0" style="stop-color:#0073BD"/>
			<stop  offset="0.3741" style="stop-color:#298EB4"/>
			<stop  offset="1" style="stop-color:#6BBAA7"/>
		</linearGradient>
		<path class="st2" d="M38.33,19.1C38.37,13.61,42.66,9,48.19,9c5.25,0,9.42,3.92,9.74,9.38c0,0.04,0,0.12,0,0.2
			c0,0.08,0,0.28-0.04,0.36c-0.12,0.97-0.97,1.62-2.1,1.62H42.94c0.2,0.93,0.65,1.98,1.37,2.67c0.85,0.97,2.47,1.7,3.88,1.82
			c1.46,0.12,3.19-0.24,4.2-1.01c0.85-0.89,2.51-0.77,3.03-0.12c0.53,0.57,0.93,1.78,0,2.63c-1.98,1.82-4.37,2.67-7.23,2.67
			C42.66,29.17,38.37,24.6,38.33,19.1z M42.74,17.12h11.44c-0.4-1.62-2.47-4-5.98-4.28C44.76,13,43.06,15.47,42.74,17.12z"/>
		<linearGradient id="SVGID_4_" gradientUnits="userSpaceOnUse" x1="74" y1="-0.8583" x2="74" y2="38.8444">
			<stop  offset="0" style="stop-color:#0073BD"/>
			<stop  offset="0.3741" style="stop-color:#298EB4"/>
			<stop  offset="1" style="stop-color:#6BBAA7"/>
		</linearGradient>
		<path class="st3" d="M77.17,17.41v9.66c0,1.17-0.93,2.14-2.1,2.14c-1.13,0-2.14-0.97-2.14-2.14v-9.66c0-2.26-1.9-4.08-4.2-4.08
			c-2.26,0-4.04,1.82-4.04,4.08v9.66c0,0.12,0,0.24-0.08,0.4c-0.2,0.97-1.09,1.74-2.14,1.74c-1.21,0-2.14-0.97-2.14-2.14v-9.66
			v-6.26c0-1.17,0.93-2.14,2.14-2.14c0.85,0,1.62,0.49,1.98,1.25C65.65,9.49,67.15,9,68.73,9C73.41,9,77.17,12.84,77.17,17.41z"/>
		<linearGradient id="SVGID_5_" gradientUnits="userSpaceOnUse" x1="74" y1="-0.8583" x2="74" y2="38.8444">
			<stop  offset="0" style="stop-color:#0073BD"/>
			<stop  offset="0.3741" style="stop-color:#298EB4"/>
			<stop  offset="1" style="stop-color:#6BBAA7"/>
		</linearGradient>
		<path class="st4" d="M90.15,11.22c0,1.21-1.05,2.22-2.26,2.22h-1.01v11.28c1.25,0,2.22,1.01,2.22,2.26s-0.97,2.22-2.22,2.22
			c-2.47,0-4.49-2.02-4.49-4.49V13.45h-1.17c-1.25,0-2.22-1.01-2.22-2.22c0-1.25,0.97-2.22,2.22-2.22h1.17V3.14
			c0-1.25,1.01-2.22,2.26-2.22c1.25,0,2.22,0.97,2.22,2.22V9h1.01C89.1,9,90.15,9.97,90.15,11.22z"/>
		<linearGradient id="SVGID_6_" gradientUnits="userSpaceOnUse" x1="74" y1="-0.8583" x2="74" y2="38.8444">
			<stop  offset="0" style="stop-color:#0073BD"/>
			<stop  offset="0.3741" style="stop-color:#298EB4"/>
			<stop  offset="1" style="stop-color:#6BBAA7"/>
		</linearGradient>
		<path class="st5" d="M90.15,19.1c0.04-5.5,4.32-10.1,9.86-10.1c5.25,0,9.42,3.92,9.74,9.38c0,0.04,0,0.12,0,0.2
			c0,0.08,0,0.28-0.04,0.36c-0.12,0.97-0.97,1.62-2.1,1.62H94.75c0.2,0.93,0.65,1.98,1.37,2.67c0.85,0.97,2.47,1.7,3.88,1.82
			c1.46,0.12,3.19-0.24,4.2-1.01c0.85-0.89,2.51-0.77,3.03-0.12c0.53,0.57,0.93,1.78,0,2.63c-1.98,1.82-4.37,2.67-7.23,2.67
			C94.47,29.17,90.19,24.6,90.15,19.1z M94.55,17.12h11.44c-0.4-1.62-2.47-4-5.98-4.28C96.57,13,94.88,15.47,94.55,17.12z"/>
		<linearGradient id="SVGID_7_" gradientUnits="userSpaceOnUse" x1="74" y1="-0.8583" x2="74" y2="38.8444">
			<stop  offset="0" style="stop-color:#0073BD"/>
			<stop  offset="0.3741" style="stop-color:#298EB4"/>
			<stop  offset="1" style="stop-color:#6BBAA7"/>
		</linearGradient>
		<path class="st6" d="M128.99,17.41v9.66c0,1.17-0.93,2.14-2.1,2.14c-1.13,0-2.14-0.97-2.14-2.14v-9.66c0-2.26-1.9-4.08-4.2-4.08
			c-2.26,0-4.04,1.82-4.04,4.08v9.66c0,0.12,0,0.24-0.08,0.4c-0.2,0.97-1.09,1.74-2.14,1.74c-1.21,0-2.14-0.97-2.14-2.14v-9.66
			v-6.26c0-1.17,0.93-2.14,2.14-2.14c0.85,0,1.62,0.49,1.98,1.25c1.21-0.77,2.71-1.25,4.28-1.25C125.23,9,128.99,12.84,128.99,17.41
			z"/>
		<linearGradient id="SVGID_8_" gradientUnits="userSpaceOnUse" x1="74" y1="-0.8583" x2="74" y2="38.8444">
			<stop  offset="0" style="stop-color:#0073BD"/>
			<stop  offset="0.3741" style="stop-color:#298EB4"/>
			<stop  offset="1" style="stop-color:#6BBAA7"/>
		</linearGradient>
		<path class="st7" d="M147.5,11.14v9.54v5.74c0,5.42-4.28,9.66-9.66,9.66c-1.46,0-2.95-0.4-4.16-1.01
			c-1.13-0.49-1.54-1.74-1.05-2.87c0.53-0.97,1.9-1.41,2.87-0.89c0.77,0.36,1.54,0.57,2.34,0.57c2.38-0.04,4.41-1.58,5.05-3.68
			c-1.13,0.65-2.51,0.97-3.84,0.97c-4.65,0-8.45-3.84-8.45-8.49v-9.54c0-1.21,1.01-2.14,2.1-2.14c1.25,0,2.14,0.93,2.14,2.14v9.54
			c0,2.34,1.9,4.12,4.2,4.12s4.16-1.78,4.16-4.12v-9.54c0-1.21,0.89-2.14,2.1-2.14C146.49,9,147.5,9.93,147.5,11.14z"/>
	</g>
</g>
</svg>
